<!DOCTYPE svg PUBLIC "-//W3C//DTD SVG 1.1//EN" "http://www.w3.org/Graphics/SVG/1.1/DTD/svg11.dtd">
<!-- Uploaded to: SVG Repo, www.svgrepo.com, Transformed by: SVG Repo Mixer Tools -->
<svg width="800px" height="800px" viewBox="0 0 24 24" xmlns="http://www.w3.org/2000/svg" fill="#000000">
<g id="SVGRepo_bgCarrier" stroke-width="0"/>
<g id="SVGRepo_tracerCarrier" stroke-linecap="round" stroke-linejoin="round"/>
<g id="SVGRepo_iconCarrier"> <defs> <style>.cls-1{fill:none;stroke:#1c3434;stroke-linecap:round;stroke-linejoin:round;stroke-width:1.5px;}</style> </defs> <g id="ic-social-twitter"> <path class="cls-1" d="M22,5.9a8.44,8.44,0,0,1-2.4.6,4.33,4.33,0,0,0,1.8-2.2,8.25,8.25,0,0,1-2.6,1A3.77,3.77,0,0,0,15.9,4a4,4,0,0,0-4.1,4,2.77,2.77,0,0,0,.1.9A10.94,10.94,0,0,1,3.7,4.8a3.17,3.17,0,0,0-.6,2,4.17,4.17,0,0,0,1.8,3.4,5.46,5.46,0,0,1-1.8-.6v.1a3.73,3.73,0,0,0,3.1,3.9,3.75,3.75,0,0,1-1.1.1,2.2,2.2,0,0,1-.8-.1,4,4,0,0,0,3.8,2.8A8.24,8.24,0,0,1,3,18.1,3.4,3.4,0,0,1,2,18a11.94,11.94,0,0,0,7.1,2C16.6,20,20,13.8,20,8.5V8A8,8,0,0,0,22,5.9Z"/> </g> </g>
</svg>